<svg width="26" height="23" viewBox="0 0 26 23" fill="none" xmlns="http://www.w3.org/2000/svg">
<path d="M25.4436 12.4671C25.7264 12.4671 26.0092 12.1843 26.0092 11.9014V8.50882C26.0092 7.54748 25.2743 6.8125 24.3129 6.8125H19.7891V22.645H24.3124C25.2737 22.645 26.0087 21.91 26.0087 20.9486V17.556C26.0084 17.4061 25.9487 17.2624 25.8427 17.1564C25.7367 17.0504 25.593 16.9907 25.4431 16.9904C24.8493 16.9812 24.283 16.7389 23.8664 16.3157C23.4497 15.8926 23.2162 15.3226 23.2162 14.7287C23.2162 14.1349 23.4497 13.5649 23.8664 13.1417C24.283 12.7186 24.8493 12.4763 25.4431 12.4671H25.4436Z" fill="white"/>
<path d="M25.0495 5.11624C25.3323 5.00333 25.5017 4.66407 25.3888 4.38126L24.2575 1.15799C23.9747 0.253107 22.9548 -0.199063 22.1091 0.0837464L6.05078 5.62486H24.1446C24.4128 5.40169 24.7195 5.22933 25.0495 5.11624Z" fill="white"/>
<path d="M0 8.50882V11.9014C0 12.2407 0.226356 12.4671 0.56562 12.4671C0.865574 12.4624 1.16346 12.5175 1.44193 12.6291C1.7204 12.7406 1.97389 12.9065 2.18765 13.117C2.40141 13.3274 2.57117 13.5783 2.68705 13.855C2.80292 14.1317 2.86259 14.4287 2.86259 14.7287C2.86259 15.0287 2.80292 15.3257 2.68705 15.6024C2.57117 15.8791 2.40141 16.13 2.18765 16.3405C1.97389 16.551 1.7204 16.7168 1.44193 16.8284C1.16346 16.94 0.865574 16.995 0.56562 16.9904C0.226356 16.9904 0 17.2168 0 17.556V20.9486C0 21.91 0.73498 22.645 1.69632 22.645H18.6595V6.8125H1.69632C0.737151 6.8125 0 7.54748 0 8.50882ZM6.78526 11.3358H10.1779C10.5172 11.3358 10.7435 11.5622 10.7435 11.9014C10.7435 12.2407 10.5172 12.4671 10.1779 12.4671H6.78526C6.446 12.4671 6.21964 12.2407 6.21964 11.9014C6.21964 11.5622 6.446 11.3358 6.78526 11.3358ZM6.78526 14.1628H14.1356C14.4749 14.1628 14.7012 14.3892 14.7012 14.7285C14.7012 15.0677 14.4749 15.2941 14.1356 15.2941H6.78526C6.446 15.2941 6.21964 15.0677 6.21964 14.7285C6.21964 14.3892 6.446 14.1628 6.78526 14.1628ZM6.78526 16.9899H14.1356C14.4749 16.9899 14.7012 17.2162 14.7012 17.5555C14.7012 17.8947 14.4749 18.1211 14.1356 18.1211H6.78526C6.446 18.1211 6.21964 17.8947 6.21964 17.5555C6.21964 17.2162 6.446 16.9904 6.78526 16.9904V16.9899Z" fill="white"/>
</svg>
