<svg width="21" height="14" viewBox="0 0 21 14" fill="none" xmlns="http://www.w3.org/2000/svg">
<path d="M13.4023 3.83984C13.0723 3.83984 12.8047 4.10743 12.8047 4.43748V5.71774C12.8341 6.50985 13.9708 6.50926 14 5.71774V4.43748C14 4.10743 13.7324 3.83984 13.4023 3.83984Z" fill="#00C0D4"/>
<path d="M13.4023 7.67969C13.0723 7.67969 12.8047 7.94727 12.8047 8.27733V9.55759C12.8341 10.3497 13.9708 10.3491 14 9.55759V8.27733C14 7.94727 13.7324 7.67969 13.4023 7.67969Z" fill="#00C0D4"/>
<path d="M19.8018 5.0361C20.1318 5.0361 20.3994 4.76852 20.3994 4.43846V2.94692C20.3994 1.10165 19.2977 0 17.4524 0H2.94695C1.10165 0 0 1.10169 0 2.94696V4.4385C0 4.76856 0.267583 5.03614 0.597638 5.03614C3.19836 5.13495 3.19721 8.86374 0.597599 8.96195C0.267543 8.96195 0 9.22953 0 9.55959V11.0511C0 12.8964 1.10165 13.998 2.94695 13.998H17.4524C19.2977 13.998 20.3994 12.8964 20.3994 11.0511V9.55959C20.3994 9.22953 20.1318 8.96195 19.8018 8.96195C17.2011 8.86326 17.2022 5.13423 19.8018 5.0361ZM19.2041 10.1005V11.0511C19.2041 12.2461 18.6475 12.8027 17.4524 12.8027H13.998V12.1201C13.9686 11.328 12.8319 11.3286 12.8027 12.1201V12.8027H2.94695C1.75188 12.8028 1.19528 12.2461 1.19528 11.0511V10.1005C4.58839 9.39416 4.58604 4.60257 1.19528 3.89752V2.94692C1.19528 1.75188 1.75188 1.19528 2.94695 1.19528H12.8028V1.8779C12.8322 2.67001 13.9689 2.66941 13.998 1.8779V1.19528H17.4525C18.6476 1.19528 19.2042 1.75188 19.2042 2.94692V3.89752C15.811 4.60389 15.8134 9.39547 19.2041 10.1005Z" fill="#00C0D4"/>
</svg>
