<svg width="20" height="20" viewBox="0 0 20 20" fill="none" xmlns="http://www.w3.org/2000/svg">
<path d="M11.6327 0.0996094C9.35135 0.0996094 7.49512 1.95502 7.495 4.23633C7.495 6.51774 9.35128 8.37402 11.6327 8.37402C13.914 8.3739 15.7694 6.51767 15.7694 4.23633C15.7693 1.95509 13.9139 0.0997309 11.6327 0.0996094ZM11.6327 1.10645C13.3586 1.10657 14.7625 2.51046 14.7626 4.23633C14.7626 5.9623 13.3586 7.36609 11.6327 7.36621C9.90665 7.36621 8.50281 5.96237 8.50281 4.23633C8.50293 2.51039 9.90672 1.10645 11.6327 1.10645Z" fill="#00C0D4" stroke="#00C0D4" stroke-width="0.2"/>
<path d="M10.4216 9.79102C10.1437 9.79108 9.91795 10.0161 9.91772 10.2939C9.91772 10.572 10.1436 10.7978 10.4216 10.7979H15.2664C16.7695 10.7979 17.9929 12.0212 17.9929 13.5244V16.25H12.0369C11.7588 16.25 11.5331 16.4759 11.533 16.7539C11.533 17.032 11.7588 17.2578 12.0369 17.2578H18.4968C18.7747 17.2576 18.9998 17.0319 18.9998 16.7539V13.5244C18.9998 11.4659 17.3249 9.79102 15.2664 9.79102H10.4216Z" fill="#00C0D4" stroke="#00C0D4" stroke-width="0.2"/>
<path d="M5.17468 12.2129C4.0068 12.2129 3.0556 13.1632 3.05554 14.3311C3.05554 15.499 4.00677 16.4502 5.17468 16.4502C6.34255 16.4501 7.29285 15.4989 7.29285 14.3311C7.29279 13.1632 6.34251 12.213 5.17468 12.2129ZM5.17468 13.2197C5.78714 13.2198 6.28595 13.7186 6.28601 14.3311C6.28601 14.9436 5.78718 15.4423 5.17468 15.4424C4.56214 15.4424 4.06335 14.9436 4.06335 14.3311C4.06342 13.7186 4.56217 13.2197 5.17468 13.2197Z" fill="#00C0D4" stroke="#00C0D4" stroke-width="0.2"/>
<path d="M4.53113 8.98242C4.06317 8.98247 3.67407 9.33359 3.62781 9.7998L3.53113 10.7695C3.3165 10.869 3.11153 10.9889 2.91687 11.127L2.02527 10.7256H2.02429C1.5974 10.5344 1.09934 10.6948 0.866089 11.0996L0.222534 12.2139C-0.0115003 12.6193 0.0992836 13.1323 0.478394 13.4053L1.26257 13.9678C1.2499 14.0804 1.24013 14.2025 1.24011 14.3301C1.24011 14.4573 1.24995 14.5803 1.26257 14.6924L0.478394 15.2559C0.0992834 15.5289 -0.0115003 16.0418 0.222534 16.4473L0.865112 17.5615C1.099 17.9656 1.59609 18.1278 2.02429 17.9346L2.91589 17.5322C3.11167 17.6713 3.31676 17.7912 3.53113 17.8906L3.62781 18.8613C3.67408 19.3268 4.06323 19.6787 4.53113 19.6787H5.81921C6.28718 19.6787 6.67628 19.3266 6.72253 18.8604L6.82019 17.8896C7.03409 17.7903 7.23907 17.671 7.43445 17.5322L8.32507 17.9346C8.75092 18.1289 9.25109 17.9665 9.48425 17.5615L10.1278 16.4463C10.3618 16.0408 10.251 15.5289 9.87195 15.2559L9.08875 14.6914C9.10135 14.5791 9.11022 14.4572 9.11023 14.3301C9.11023 14.2029 9.10137 14.0799 9.08875 13.9678L9.87195 13.4043C10.251 13.1314 10.3617 12.6193 10.1278 12.2139L9.48425 11.0986C9.25031 10.6933 8.75312 10.5326 8.32605 10.7246H8.32507L7.43542 11.127C7.23986 10.988 7.03431 10.869 6.82019 10.7695L6.72253 9.79883L6.70984 9.71289C6.62729 9.29078 6.25787 8.98246 5.81921 8.98242H4.53113ZM5.84656 11.167C5.86571 11.3595 5.99361 11.5234 6.17468 11.5898C6.48562 11.7036 6.77858 11.8743 7.04382 12.0957C7.17315 12.2038 7.34691 12.2401 7.50671 12.1934L7.5741 12.168L8.65808 11.6787L9.21082 12.6367L8.25183 13.3252L8.19617 13.3721C8.07664 13.4874 8.02173 13.6557 8.04968 13.8213V13.8223C8.07921 13.9907 8.10242 14.1576 8.10242 14.3281C8.10242 14.4987 8.07921 14.6656 8.04968 14.834C8.01641 15.0245 8.09514 15.2166 8.25183 15.3301V15.3311L9.21082 16.0186L8.65808 16.9766L7.5741 16.4893L7.57117 16.4883C7.50575 16.4606 7.43702 16.4463 7.36707 16.4463C7.25103 16.4463 7.13633 16.487 7.04382 16.5645C6.84496 16.731 6.63024 16.8676 6.40417 16.9736L6.17468 17.0693L6.10925 17.0986C5.96325 17.1772 5.86338 17.3238 5.84656 17.4922L5.72742 18.6709H4.62097L4.50281 17.4922C4.48357 17.2997 4.35576 17.1357 4.17468 17.0693C3.86377 16.9556 3.57077 16.7849 3.30554 16.5635C3.15688 16.4401 2.95095 16.4114 2.77527 16.4912H2.77625L1.69226 16.9805L1.13953 16.0215L2.09753 15.334C2.25511 15.2209 2.33273 15.0274 2.30066 14.8379V14.8369C2.27115 14.6686 2.24792 14.5015 2.24792 14.3311C2.24795 14.1606 2.27114 13.9936 2.30066 13.8252C2.33381 13.6349 2.25493 13.4426 2.09851 13.3291H2.09753L1.13953 12.6396L1.69226 11.6807L2.77625 12.1709C2.93043 12.2403 3.10668 12.2267 3.24792 12.1396L3.30652 12.0977C3.57074 11.8756 3.86314 11.7066 4.17566 11.5928C4.35669 11.5264 4.48449 11.3623 4.50378 11.1699L4.62195 9.98828H5.72839L5.84656 11.167Z" fill="#00C0D4" stroke="#00C0D4" stroke-width="0.2"/>
</svg>
