<svg width="18" height="18" viewBox="0 0 18 18" fill="none" xmlns="http://www.w3.org/2000/svg">
<path d="M2.53809 0.0996094H11.7695C13.1145 0.0996094 14.2078 1.19318 14.208 2.53809V5.32227L14.2598 5.35156C15.8777 6.23661 16.9775 7.95339 16.9775 9.92285C16.9775 10.8798 16.7128 11.7759 16.2598 12.5479L16.2207 12.6143L17.7266 14.1201C17.958 14.3515 17.958 14.7256 17.7266 14.957C17.6113 15.0723 17.46 15.1307 17.3086 15.1309C17.1947 15.1309 17.0807 15.0983 16.9824 15.0332L16.8896 14.957L15.4932 13.5605L15.4219 13.6299C15.0778 13.9685 14.6866 14.2584 14.2607 14.4922L14.209 14.5205V15.4619C14.2088 16.8068 13.1155 17.9004 11.7705 17.9004H2.53809C1.1933 17.9001 0.0998129 16.8067 0.0996094 15.4619V2.53809C0.0998128 1.19333 1.19329 0.0998504 2.53809 0.0996094ZM2.53809 1.28418C1.84719 1.28442 1.28441 1.84622 1.28418 2.53711V15.4609C1.28435 16.1519 1.84715 16.7146 2.53809 16.7148H11.7695C12.4607 16.7148 13.0233 16.152 13.0234 15.4609V14.9746L12.9014 15.002C12.5359 15.0835 12.1584 15.1299 11.7695 15.1299C8.89852 15.1299 6.56152 12.7937 6.56152 9.92188C6.56167 7.05018 8.89861 4.71486 11.7695 4.71484C12.1584 4.71484 12.536 4.76022 12.9014 4.8418L13.0234 4.86914V2.53711C13.0232 1.84607 12.4606 1.28418 11.7695 1.28418H2.53809ZM11.7695 5.89941C9.55158 5.89943 7.74624 7.70401 7.74609 9.92188C7.74609 12.1399 9.55149 13.9453 11.7695 13.9453C13.9876 13.9453 15.793 12.1408 15.793 9.92188C15.7928 7.704 13.9875 5.89941 11.7695 5.89941ZM13.2588 8.52832C13.5201 8.33173 13.8912 8.38314 14.0889 8.64355C14.2856 8.90512 14.2339 9.27619 13.9727 9.47363L11.5107 11.3281C11.4047 11.4072 11.2794 11.4472 11.1543 11.4473C11.0276 11.4473 10.9015 11.4085 10.7959 11.3281L9.56543 10.3955L9.47754 10.3135C9.32139 10.1362 9.28601 9.88167 9.3877 9.66895L9.4502 9.56641C9.64971 9.30448 10.021 9.25413 10.2803 9.45117L11.0947 10.0664L11.1543 10.1123L11.2148 10.0664L13.0986 8.64746V8.64844L13.2588 8.52832ZM3.46191 9.33105H4.38477C4.71162 9.33107 4.97742 9.59604 4.97754 9.92285C4.97754 10.2498 4.71169 10.5156 4.38477 10.5156H3.46191C3.13498 10.5156 2.86914 10.2498 2.86914 9.92285C2.86926 9.59603 3.13505 9.33105 3.46191 9.33105ZM3.46191 6.56152H5.30762C5.63456 6.56152 5.90039 6.82737 5.90039 7.1543C5.90015 7.48101 5.63441 7.74609 5.30762 7.74609H3.46191C3.13513 7.74609 2.86938 7.48101 2.86914 7.1543C2.86914 6.82737 3.13498 6.56152 3.46191 6.56152ZM3.46191 3.79199H8.07715C8.40408 3.79199 8.66992 4.05784 8.66992 4.38477C8.66984 4.71162 8.40403 4.97656 8.07715 4.97656H3.46191C3.13503 4.97656 2.86922 4.71162 2.86914 4.38477C2.86914 4.05784 3.13498 3.79199 3.46191 3.79199Z" fill="#00C0D4" stroke="#00C0D4" stroke-width="0.2"/>
</svg>
