<svg width="16" height="18" viewBox="0 0 16 18" fill="none" xmlns="http://www.w3.org/2000/svg">
<path d="M14.1831 2.2952H13.6383V1.7516C13.6383 0.785805 12.8525 0 11.8867 0H1.7516C0.785805 0 0 0.785805 0 1.7516V13.9506C0 14.9164 0.785805 15.7022 1.7516 15.7022H2.29641V16.2476C2.29641 17.2134 3.08222 17.9992 4.04801 17.9992H14.1831C15.1489 17.9992 15.9347 17.2134 15.9347 16.2476V4.0468C15.9347 3.08101 15.1489 2.2952 14.1831 2.2952ZM1.0872 13.9506V1.7516C1.0872 1.38558 1.38558 1.0872 1.7516 1.0872H11.8867C12.2528 1.0872 12.5511 1.38558 12.5511 1.7516V13.9506C12.5511 14.3166 12.2528 14.615 11.8867 14.615H1.7516C1.38558 14.615 1.0872 14.3166 1.0872 13.9506ZM14.8475 16.2476C14.8475 16.6136 14.5492 16.912 14.1831 16.912H4.04801C3.68199 16.912 3.38361 16.6136 3.38361 16.2476V15.7022H11.8873C12.8531 15.7022 13.6389 14.9164 13.6389 13.9506V3.3824H14.1837C14.5498 3.3824 14.8481 3.68078 14.8481 4.0468L14.8475 16.2476Z" fill="#00C0D4"/>
<path d="M10.1958 4.5H6.28188C5.98169 4.5 5.73828 4.74341 5.73828 5.0436C5.73828 5.34379 5.98169 5.5872 6.28188 5.5872H10.1958C10.496 5.5872 10.7394 5.34379 10.7394 5.0436C10.7394 4.74341 10.496 4.5 10.1958 4.5Z" fill="#00C0D4"/>
<path d="M4.20972 4.5H3.44204C3.14185 4.5 2.89844 4.74341 2.89844 5.0436C2.89844 5.34379 3.14185 5.5872 3.44204 5.5872H4.20972C4.50991 5.5872 4.75332 5.34379 4.75332 5.0436C4.75332 4.74341 4.50991 4.5 4.20972 4.5Z" fill="#00C0D4"/>
<path d="M10.1958 7.30859H6.28188C5.98169 7.30859 5.73828 7.55201 5.73828 7.85219C5.73828 8.15238 5.98169 8.39579 6.28188 8.39579H10.1958C10.496 8.39579 10.7394 8.15238 10.7394 7.85219C10.7394 7.55201 10.496 7.30859 10.1958 7.30859Z" fill="#00C0D4"/>
<path d="M4.20972 7.30859H3.44204C3.14185 7.30859 2.89844 7.55201 2.89844 7.85219C2.89844 8.15238 3.14185 8.39579 3.44204 8.39579H4.20972C4.50991 8.39579 4.75332 8.15238 4.75332 7.85219C4.75332 7.55201 4.50991 7.30859 4.20972 7.30859Z" fill="#00C0D4"/>
<path d="M10.1958 10.1172H6.28188C5.98169 10.1172 5.73828 10.3606 5.73828 10.6608C5.73828 10.961 5.98169 11.2044 6.28188 11.2044H10.1958C10.496 11.2044 10.7394 10.961 10.7394 10.6608C10.7394 10.3606 10.496 10.1172 10.1958 10.1172Z" fill="#00C0D4"/>
<path d="M4.20972 10.1172H3.44204C3.14185 10.1172 2.89844 10.3606 2.89844 10.6608C2.89844 10.961 3.14185 11.2044 3.44204 11.2044H4.20972C4.50991 11.2044 4.75332 10.961 4.75332 10.6608C4.75332 10.3606 4.50991 10.1172 4.20972 10.1172Z" fill="#00C0D4"/>
</svg>
