<svg width="18" height="18" viewBox="0 0 18 18" fill="none" xmlns="http://www.w3.org/2000/svg">
<path d="M6.93787 6.00041H1.31253C0.588765 6.00041 0 5.41164 0 4.68774V1.31253C0 0.588765 0.588765 0 1.31253 0H6.93787C7.66178 0 8.25054 0.588765 8.25054 1.31253V4.68774C8.25054 5.41164 7.66178 6.00041 6.93787 6.00041ZM1.31253 1.12507C1.20912 1.12507 1.12507 1.20912 1.12507 1.31253V4.68774C1.12507 4.79129 1.20912 4.87534 1.31253 4.87534H6.93787C7.04142 4.87534 7.12548 4.79129 7.12548 4.68774V1.31253C7.12548 1.20912 7.04142 1.12507 6.93787 1.12507H1.31253Z" fill="#00C0D4"/>
<path d="M6.93787 18.0007H1.31253C0.588765 18.0007 0 17.4119 0 16.6881V8.81267C0 8.08877 0.588765 7.5 1.31253 7.5H6.93787C7.66178 7.5 8.25054 8.08877 8.25054 8.81267V16.6881C8.25054 17.4119 7.66178 18.0007 6.93787 18.0007ZM1.31253 8.62507C1.20912 8.62507 1.12507 8.70912 1.12507 8.81267V16.6881C1.12507 16.7916 1.20912 16.8756 1.31253 16.8756H6.93787C7.04142 16.8756 7.12548 16.7916 7.12548 16.6881V8.81267C7.12548 8.70912 7.04142 8.62507 6.93787 8.62507H1.31253Z" fill="#00C0D4"/>
<path d="M16.688 18.0004H11.0627C10.3388 18.0004 9.75 17.4116 9.75 16.6879V13.3127C9.75 12.5888 10.3388 12 11.0627 12H16.688C17.4118 12 18.0005 12.5888 18.0005 13.3127V16.6879C18.0005 17.4116 17.4118 18.0004 16.688 18.0004ZM11.0627 13.1251C10.9591 13.1251 10.8751 13.2091 10.8751 13.3127V16.6879C10.8751 16.7913 10.9591 16.8753 11.0627 16.8753H16.688C16.7914 16.8753 16.8755 16.7913 16.8755 16.6879V13.3127C16.8755 13.2091 16.7914 13.1251 16.688 13.1251H11.0627Z" fill="#00C0D4"/>
<path d="M16.688 10.5007H11.0627C10.3388 10.5007 9.75 9.91191 9.75 9.18801V1.31253C9.75 0.588765 10.3388 0 11.0627 0H16.688C17.4118 0 18.0005 0.588765 18.0005 1.31253V9.18801C18.0005 9.91191 17.4118 10.5007 16.688 10.5007ZM11.0627 1.12507C10.9591 1.12507 10.8751 1.20912 10.8751 1.31253V9.18801C10.8751 9.29156 10.9591 9.37561 11.0627 9.37561H16.688C16.7914 9.37561 16.8755 9.29156 16.8755 9.18801V1.31253C16.8755 1.20912 16.7914 1.12507 16.688 1.12507H11.0627Z" fill="#00C0D4"/>
</svg>
