<svg width="11" height="7" viewBox="0 0 11 7" fill="none" xmlns="http://www.w3.org/2000/svg">
<path fill-rule="evenodd" clip-rule="evenodd" d="M0.241005 0.237412C0.391427 0.0926904 0.593153 0.0136091 0.801852 0.0175468C1.01055 0.0214846 1.20915 0.108119 1.35401 0.258412L5.24951 4.39331L9.14501 0.258412C9.21581 0.18035 9.30157 0.117295 9.39719 0.0729845C9.49282 0.0286736 9.59637 0.00400811 9.7017 0.000449162C9.80703 -0.00310978 9.91201 0.0145101 10.0104 0.0522654C10.1088 0.0900208 10.1986 0.147143 10.2745 0.220248C10.3504 0.293352 10.4109 0.380951 10.4524 0.477854C10.4938 0.574757 10.5154 0.678993 10.5158 0.784384C10.5162 0.889776 10.4955 0.994178 10.4548 1.09141C10.4141 1.18863 10.3543 1.27671 10.279 1.35041L5.8165 6.07541C5.74304 6.15163 5.65497 6.21225 5.55755 6.25366C5.46013 6.29507 5.35536 6.31641 5.24951 6.31641C5.14365 6.31641 5.03888 6.29507 4.94146 6.25366C4.84404 6.21225 4.75597 6.15163 4.68251 6.07541L0.220005 1.35041C0.0752838 1.19999 -0.00379741 0.998265 0.000140312 0.789565C0.00407804 0.580866 0.0907126 0.382267 0.241005 0.237412Z" fill="#130482"/>
</svg>
